
<svg width="33" height="24" fill="none" xmlns="http://www.w3.org/2000/svg" class=""><path d="M1.052 0C.472 0 0 .403 0 .9s.471.9 1.052.9h4.054l3.616 14.597c.143.55.565 1.006 1.096 1.003h17.534c.556.007 1.067-.424 1.067-.9 0-.476-.511-.907-1.067-.9H10.673l-.45-1.8h18.532c.47-.004.916-.31 1.019-.703l2.454-9c.137-.523-.393-1.094-1.019-1.097H7.561L6.991.712C6.891.312 6.44 0 5.961 0H1.052zm6.947 4.8h5.48l.526 2.7H8.668l-.669-2.7zm7.627 0h6.62l-.527 2.7h-5.567l-.526-2.7zm8.767 0h5.49l-.734 2.7h-5.282l.526-2.7zM9.117 9.3h5.238l.527 2.7H9.786l-.669-2.7zm7.386 0h4.866l-.526 2.7h-3.814l-.526-2.7zm7.013 0h5.14l-.734 2.7H22.99l.526-2.7zM13.326 18c-1.925 0-3.507 1.354-3.507 3s1.582 3 3.506 3c1.925 0 3.507-1.354 3.507-3s-1.582-3-3.507-3zm10.52 0c-1.925 0-3.507 1.354-3.507 3s1.582 3 3.506 3c1.925 0 3.507-1.354 3.507-3s-1.582-3-3.507-3zm-10.52 1.8c.787 0 1.402.526 1.402 1.2 0 .674-.615 1.2-1.403 1.2-.787 0-1.402-.526-1.402-1.2 0-.674.615-1.2 1.402-1.2zm10.52 0c.787 0 1.402.526 1.402 1.2 0 .674-.615 1.2-1.403 1.2-.787 0-1.402-.526-1.402-1.2 0-.674.615-1.2 1.402-1.2z" fill="#777"></path></svg>