<svg width="20" height="22" fill="none" xmlns="http://www.w3.org/2000/svg" class=""><path d="M13.04 5.74c0 2.724-1.953 4.738-4.137 4.738-2.183 0-4.137-2.014-4.137-4.739C4.766 3.015 6.72 1 8.903 1c2.184 0 4.137 2.015 4.137 4.74z" fill="#888" stroke="#888" stroke-width="2"></path><mask id="a" fill="#888"><path fill-rule="evenodd" clip-rule="evenodd" d="M0 24h17.806c-.065-6.931-4.026-12.522-8.903-12.522C4.026 11.478.065 17.068 0 24z"></path></mask><path fill-rule="evenodd" clip-rule="evenodd" d="M0 24h17.806c-.065-6.931-4.026-12.522-8.903-12.522C4.026 11.478.065 17.068 0 24z" fill="#888"></path><path d="M0 24l-2-.019L-2.02 26H0v-2zm17.806 0v2h2.019l-.019-2.019-2 .019zM0 26h17.806v-4H0v4zm8.903-12.522c1.615 0 3.278.923 4.625 2.82 1.344 1.892 2.249 4.613 2.278 7.72l4-.037c-.036-3.823-1.144-7.363-3.017-10-1.869-2.63-4.625-4.503-7.886-4.503v4zM2 24.018c.029-3.107.934-5.828 2.277-7.72 1.348-1.897 3.01-2.82 4.626-2.82v-4c-3.261 0-6.018 1.873-7.887 4.504-1.872 2.636-2.98 6.176-3.016 10l4 .037z" fill="#888" mask="url(#a)"></path></svg>