<svg id="Layer_1" enable-background="new 0 0 511.725 511.725" height="512" viewBox="0 0 511.725 511.725" width="512" xmlns="http://www.w3.org/2000/svg"><g><path d="m505.497 167.749c2.032-8.797-.018-17.901-5.624-24.978-5.605-7.077-13.999-11.156-23.026-11.193l-342.19-1.38h-.115c-8.584 0-16.502 3.898-21.739 10.706-5.261 6.839-6.989 15.539-4.742 23.869l42.473 157.456c4.374 16.157 19.12 27.442 35.859 27.442h248.067c17.089 0 31.711-11.629 35.557-28.281" fill="#4d2ee6"/><path d="m476.847 131.578-164.412-.663v218.756h122.027c17.089 0 31.711-11.629 35.557-28.281l35.48-153.642c2.032-8.797-.018-17.901-5.624-24.978-5.607-7.076-14.001-11.155-23.028-11.192z" fill="#012f7e"/><path d="m511.689 158.023c-.138-2.807-.668-5.571-1.573-8.223-.015-.043-.026-.087-.041-.129-.119-.344-.255-.683-.387-1.023-.071-.184-.134-.37-.209-.553-1.068-2.603-2.51-5.075-4.307-7.344-5.752-7.261-14.363-11.447-23.626-11.484l-356.849-1.438-17.777-65.953c-4.267-15.761-18.65-26.768-34.978-26.768h-56.942c-8.284 0-15 6.716-15 15s6.716 15 15 15h56.942c2.811 0 5.286 1.895 6.017 4.592l20.462 75.918c.14.73.333 1.441.574 2.129l47.229 175.229c-12.003.436-23.183 5.318-31.661 13.92-8.908 9.04-13.692 21.006-13.471 33.695.442 25.377 21.451 46.023 46.833 46.023h301.124c8.284 0 15-6.716 15-15s-6.716-15-15-15h-301.124c-9.125 0-16.678-7.422-16.837-16.547-.08-4.562 1.641-8.864 4.843-12.114 3.191-3.238 7.449-5.02 11.993-5.02h.05l35.513.103h254.569c17.535 0 32.537-11.933 36.481-29.017l36.404-157.642c.642-2.777.884-5.586.748-8.354zm-127.511 68.031h-57.169v-67.411l66.177.267zm-87.17 0h-57.319l-9.17-67.8 66.489.268zm-149.51-13.628-14.707-54.566 67.447.272 9.186 67.922h-58.253zm275.931-53.394 57.995.234c.089 0 .143 0 .23.112.009.012.007.018.014.028.061.09.059.145.042.222l-15.34 66.425h-51.933zm-239.855 164.005h-.046c-3.656-.001-6.877-2.467-7.828-5.98l-16.442-61.003h54.225l9.06 66.983zm69.232 0-9.06-66.983h53.261v66.983zm74.202 0v-66.983h53.145l-8.986 66.983zm74.42 0 8.986-66.983h49.03l-14.137 61.217c-.784 3.395-3.766 5.767-7.251 5.767h-36.628z" fill="#d7d7d7"/><g fill="#bebebe"><path d="m464.049 401.614c0-8.284-6.716-15-15-15h-136.615v30h136.615c8.284 0 15-6.716 15-15z"/><path d="m510.115 149.8c-.014-.043-.026-.087-.041-.129-.119-.344-.255-.683-.387-1.023-.071-.184-.134-.37-.209-.553-1.068-2.603-2.51-5.075-4.307-7.344-5.752-7.261-14.363-11.447-23.626-11.484l-169.111-.682v224.454h125.622c17.535 0 32.537-11.933 36.481-29.017l36.404-157.642c.642-2.779.883-5.587.747-8.356-.138-2.808-.668-5.573-1.573-8.224zm-138.947 173.237h-44.159v-66.983h53.145zm13.01-96.983h-57.169v-67.411l66.177.267zm61.129 91.216c-.784 3.395-3.766 5.767-7.251 5.767h-36.628l8.986-66.983h49.03zm36.404-157.642-15.34 66.425h-51.933l8.991-67.022 57.995.234c.089 0 .143 0 .23.112.009.012.007.018.014.028.062.09.06.146.043.223z"/></g><circle cx="217.222" cy="439.116" fill="#444" r="37.502"/><circle cx="406.794" cy="439.107" fill="#292929" r="37.502"/><circle cx="217.222" cy="439.107" fill="#828282" r="16.29"/><circle cx="406.794" cy="439.107" fill="#5a5a5a" r="16.29"/></g></svg>