<?xml version="1.0" encoding="UTF-8" standalone="no"?>
<svg
   xmlns:dc="http://purl.org/dc/elements/1.1/"
   xmlns:cc="http://creativecommons.org/ns#"
   xmlns:rdf="http://www.w3.org/1999/02/22-rdf-syntax-ns#"
   xmlns:svg="http://www.w3.org/2000/svg"
   xmlns="http://www.w3.org/2000/svg"
   xmlns:sodipodi="http://sodipodi.sourceforge.net/DTD/sodipodi-0.dtd"
   xmlns:inkscape="http://www.inkscape.org/namespaces/inkscape"
   width="8cm"
   height="2.45cm"
   viewBox="0 0 79.998994 24.499692"
   version="1.1"
   id="svg8"
   inkscape:version="1.0.2 (e86c8708, 2021-01-15)"
   sodipodi:docname="dogtic-logo.svg">
  <defs
     id="defs2">
    <rect
       x="287.93607"
       y="80.709351"
       width="75.25602"
       height="18.541336"
       id="rect48" />
    <rect
       x="274.84805"
       y="29.448006"
       width="114.52002"
       height="16.360004"
       id="rect42" />
    <rect
       x="75.545502"
       y="65.101425"
       width="69.62719"
       height="16.710526"
       id="rect36" />
    <rect
       x="52.568531"
       y="108.27029"
       width="73.456688"
       height="18.451206"
       id="rect30" />
    <rect
       x="32.505951"
       y="101.29762"
       width="112.6369"
       height="40.82143"
       id="rect16" />
  </defs>
  <sodipodi:namedview
     id="base"
     pagecolor="#ffffff"
     bordercolor="#666666"
     borderopacity="1.0"
     inkscape:pageopacity="0"
     inkscape:pageshadow="2"
     inkscape:zoom="1.26"
     inkscape:cx="287.44245"
     inkscape:cy="56.202037"
     inkscape:document-units="px"
     inkscape:current-layer="layer1"
     inkscape:document-rotation="0"
     showgrid="false"
     inkscape:window-width="1966"
     inkscape:window-height="1243"
     inkscape:window-x="56"
     inkscape:window-y="67"
     inkscape:window-maximized="0"
     units="cm"
     width="800mm"
     inkscape:pagecheckerboard="false" />
  <metadata
     id="metadata5">
    <rdf:RDF>
      <cc:Work
         rdf:about="">
        <dc:format>image/svg+xml</dc:format>
        <dc:type
           rdf:resource="http://purl.org/dc/dcmitype/StillImage" />
        <dc:title></dc:title>
      </cc:Work>
    </rdf:RDF>
  </metadata>
  <g
     inkscape:label="Layer 1"
     inkscape:groupmode="layer"
     id="layer1">
    <text
       xml:space="preserve"
       id="text14"
       style="font-style:normal;font-weight:normal;font-size:10.58329999999999949px;line-height:1.25;font-family:sans-serif;white-space:pre;shape-inside:url(#rect16);fill:#000000;fill-opacity:1;stroke:none;" />
    <path
       id="path850"
       style="font-style:normal;font-variant:normal;font-weight:bold;font-stretch:normal;font-size:29.6948px;line-height:1.75;font-family:'.Apple SD Gothic NeoI';-inkscape-font-specification:'.Apple SD Gothic NeoI Bold';letter-spacing:0.906307px;word-spacing:0.757842px;fill:#0000ff;fill-opacity:1;stroke:none;stroke-width:0.601981"
       d="M 15.847656 8.6367188 L 15.847656 80.640625 L 44.611328 80.640625 C 72.612088 80.640625 86.230469 67.93888 86.230469 44.847656 L 86.230469 42.75 C 86.230469 19.23893 71.212374 8.6367188 44.484375 8.6367188 L 15.847656 8.6367188 z M 31.501953 18.818359 L 43.59375 18.818359 C 60.139649 18.818359 69.685547 24.486429 69.685547 42.644531 L 69.685547 46.107422 C 69.685547 63.530799 61.795242 70.458984 44.740234 70.458984 L 31.501953 70.458984 L 31.501953 18.818359 z M 119.35938 45.335938 C 107.18959 45.335938 98.923828 51.883422 98.923828 63.744141 L 98.923828 64.923828 C 98.923828 77.106559 106.92912 83.333984 118.96875 83.333984 C 131.07346 83.333984 139.4043 76.838221 139.4043 64.923828 L 139.4043 63.744141 C 139.4043 51.454073 131.26885 45.335938 119.35938 45.335938 z M 171.19727 45.335938 C 159.61319 45.335938 149.33008 49.951535 149.33008 63.958984 L 149.33008 65.085938 C 149.33008 78.020025 157.66129 83.333984 170.74219 83.333984 C 176.72946 83.333984 181.93425 82.205164 185.31836 81.078125 L 185.31836 64.011719 L 169.24414 64.011719 L 169.24414 68.949219 L 177.50977 68.949219 L 177.50977 77.322266 C 175.88279 77.751614 173.27894 78.126953 170.67578 78.126953 C 160.19805 78.126953 157.79102 72.706854 157.79102 65.085938 L 157.79102 63.421875 C 157.79102 56.498642 160.91485 50.703125 171.39258 50.703125 C 177.31478 50.703125 180.7634 51.776155 183.43164 52.742188 L 183.43164 47.482422 C 180.82848 46.355387 176.92423 45.335937 171.19727 45.335938 z M 279.55859 45.335938 C 267.97452 45.335938 258.60352 50.327888 258.60352 63.583984 L 258.60352 64.923828 C 258.60352 77.321232 266.28278 83.333984 278.71289 83.333984 C 284.04937 83.333984 288.14831 82.419836 291.20703 81.078125 L 291.20703 75.980469 C 288.53879 76.892832 285.28515 77.966797 280.20898 77.966797 C 270.8376 77.966797 267.25781 73.189611 267.25781 64.763672 L 267.25781 62.884766 C 267.25781 54.13681 272.40013 50.703125 280.14453 50.703125 C 284.24452 50.703125 287.30276 51.292883 290.75195 52.419922 L 290.75195 47.267578 C 288.01863 46.033203 284.5046 45.335938 279.55859 45.335938 z M 193.41602 45.925781 L 193.41602 51.132812 L 206.23633 51.132812 L 206.23633 82.742188 L 214.24023 82.742188 L 214.24023 51.132812 L 226.93164 51.132812 L 226.93164 45.925781 L 193.41602 45.925781 z M 238.125 45.925781 L 238.125 82.742188 L 246.19531 82.742188 L 246.19531 45.925781 L 238.125 45.925781 z M 118.96875 50.488281 C 127.62427 50.541913 130.87891 55.531938 130.87891 63.796875 L 130.87891 65.623047 C 130.87891 73.136623 127.03801 78.234375 119.22852 78.234375 C 110.70315 78.234375 107.44922 73.189697 107.44922 64.871094 L 107.44922 62.992188 C 107.44922 55.532274 111.22434 50.488281 118.96875 50.488281 z "
       transform="scale(0.26458)" />
    <text
       xml:space="preserve"
       id="text34"
       style="font-style:normal;font-weight:normal;font-size:10.58329999999999949px;line-height:1.25;font-family:sans-serif;white-space:pre;shape-inside:url(#rect36);fill:#000000;fill-opacity:1;stroke:none;" />
    <text
       xml:space="preserve"
       id="text40"
       style="font-style:normal;font-weight:normal;font-size:10.58329999999999949px;line-height:1.25;font-family:sans-serif;white-space:pre;shape-inside:url(#rect42);fill:#000000;fill-opacity:1;stroke:none;" />
    <text
       xml:space="preserve"
       id="text46"
       style="font-style:normal;font-weight:normal;font-size:10.58329999999999949px;line-height:1.25;font-family:sans-serif;white-space:pre;shape-inside:url(#rect48);fill:#000000;fill-opacity:1;stroke:none;" />
  </g>
</svg>
