<?xml version="1.0" encoding="UTF-8" standalone="no"?>
<svg
   xmlns:dc="http://purl.org/dc/elements/1.1/"
   xmlns:cc="http://creativecommons.org/ns#"
   xmlns:rdf="http://www.w3.org/1999/02/22-rdf-syntax-ns#"
   xmlns:svg="http://www.w3.org/2000/svg"
   xmlns="http://www.w3.org/2000/svg"
   xmlns:sodipodi="http://sodipodi.sourceforge.net/DTD/sodipodi-0.dtd"
   xmlns:inkscape="http://www.inkscape.org/namespaces/inkscape"
   width="8in"
   height="3in"
   viewBox="0 0 203.2 76.2"
   version="1.1"
   id="svg8"
   inkscape:version="1.0.2 (e86c8708, 2021-01-15)"
   sodipodi:docname="dogtic2.svg">
  <defs
     id="defs2">
    <rect
       x="16.643145"
       y="13.229167"
       width="178.80712"
       height="53.770161"
       id="rect835" />
  </defs>
  <sodipodi:namedview
     id="base"
     pagecolor="#ffffff"
     bordercolor="#666666"
     borderopacity="1.0"
     inkscape:pageopacity="0.0"
     inkscape:pageshadow="2"
     inkscape:zoom="0.62"
     inkscape:cx="477.38999"
     inkscape:cy="108.3871"
     inkscape:document-units="mm"
     inkscape:current-layer="layer1"
     inkscape:document-rotation="0"
     showgrid="false"
     units="in"
     width="8in"
     inkscape:window-width="1252"
     inkscape:window-height="1174"
     inkscape:window-x="1717"
     inkscape:window-y="81"
     inkscape:window-maximized="0" />
  <metadata
     id="metadata5">
    <rdf:RDF>
      <cc:Work
         rdf:about="">
        <dc:format>image/svg+xml</dc:format>
        <dc:type
           rdf:resource="http://purl.org/dc/dcmitype/StillImage" />
        <dc:title></dc:title>
      </cc:Work>
    </rdf:RDF>
  </metadata>
  <g
     inkscape:label="Layer 1"
     inkscape:groupmode="layer"
     id="layer1">
    <path
       id="path843"
       style="font-style:normal;font-variant:normal;font-weight:bold;font-stretch:normal;font-size:10.5833px;line-height:1.25;font-family:'Helvetica Neue';-inkscape-font-specification:'Helvetica Neue Bold';white-space:pre;fill:#0000ff;fill-opacity:1;stroke:none;stroke-width:26.1515"
       d="M 13.951172 32.013672 L 13.951172 247.77539 L 92.025391 247.77539 C 105.8829 247.77539 117.88185 245.05458 128.02148 239.61523 C 138.33011 233.97444 146.86524 226.31839 153.625 216.64844 C 160.55375 206.9785 165.70801 195.4954 169.08789 182.19922 C 172.46777 168.90304 174.15625 154.3992 174.15625 138.68555 C 174.15625 120.75585 172.04515 105.14188 167.82031 91.845703 C 163.76444 78.549542 158.01777 67.469602 150.58203 58.605469 C 143.31529 49.741355 134.6123 43.094157 124.47266 38.662109 C 114.50202 34.230044 103.68598 32.013672 92.025391 32.013672 L 13.951172 32.013672 z M 53.748047 71.902344 L 82.138672 71.902344 C 91.940332 71.902344 100.13776 73.614291 106.72852 77.039062 C 113.48827 80.262362 118.8953 84.997002 122.95117 91.242188 C 127.00703 97.487355 129.88037 105.04214 131.57031 113.90625 C 133.42924 122.56891 134.35938 132.34006 134.35938 143.21875 C 134.35938 155.10473 133.09154 165.17776 130.55664 173.4375 C 128.02172 181.69726 124.64086 188.44572 120.41602 193.68359 C 116.19116 198.72003 111.3746 202.34647 105.9668 204.5625 C 100.55898 206.77852 94.984075 207.88672 89.238281 207.88672 L 53.748047 207.88672 L 53.748047 71.902344 z M 254.24414 86.925781 C 244.39981 86.925781 235.53952 89.126573 227.66406 93.527344 C 219.91165 97.928117 213.32844 103.8683 207.91406 111.34961 C 202.49969 118.83092 198.31462 127.56006 195.36133 137.53516 C 192.53108 147.51023 191.11719 158.07208 191.11719 169.2207 C 191.11719 180.51602 192.53108 191.15188 195.36133 201.12695 C 198.31462 211.10205 202.49969 219.82924 207.91406 227.31055 C 213.32844 234.79185 219.91165 240.73399 227.66406 245.13477 C 235.53952 249.38885 244.39981 251.51562 254.24414 251.51562 C 264.08847 251.51563 272.88626 249.38885 280.63867 245.13477 C 288.51413 240.73399 295.15789 234.79185 300.57227 227.31055 C 305.98666 219.82924 310.10921 211.10205 312.93945 201.12695 C 315.89275 191.15188 317.36914 180.51602 317.36914 169.2207 C 317.36914 158.07208 315.89275 147.51023 312.93945 137.53516 C 310.10921 127.56006 305.98666 118.83092 300.57227 111.34961 C 295.15789 103.8683 288.51413 97.928117 280.63867 93.527344 C 272.88626 89.126573 264.08847 86.925781 254.24414 86.925781 z M 395.4043 86.925781 C 385.55996 86.925781 376.69968 89.126573 368.82422 93.527344 C 361.07183 97.928117 354.48861 103.8683 349.07422 111.34961 C 343.65984 118.83092 339.47673 127.56006 336.52344 137.53516 C 333.69319 147.51023 332.27734 158.07208 332.27734 169.2207 C 332.27734 180.51602 333.69319 191.15188 336.52344 201.12695 C 339.47673 211.10205 343.65984 219.82924 349.07422 227.31055 C 354.48861 234.79185 361.07183 240.73399 368.82422 245.13477 C 376.69968 249.38885 385.55996 251.51563 395.4043 251.51562 C 403.40281 251.51562 410.47817 249.90107 416.63086 246.67383 C 422.78358 243.44661 428.93715 237.65248 435.08984 229.29102 L 438.5957 247.77539 L 453.36328 247.77539 L 453.36328 165.03906 L 397.25 165.03906 L 397.25 185.94336 L 432.32031 185.94336 C 432.19725 192.54451 431.33603 198.55871 429.73633 203.98633 C 428.13661 209.41395 425.7365 214.0356 422.53711 217.84961 C 419.46075 221.51693 415.64675 224.376 411.09375 226.42969 C 406.54075 228.33665 401.31089 229.21688 395.4043 229.07031 C 388.39022 229.07031 382.29914 227.38367 377.13086 224.00977 C 372.08565 220.63584 367.96308 216.16222 364.76367 210.58789 C 361.56426 204.8669 359.16416 198.41254 357.56445 191.22461 C 356.08773 184.03668 355.34961 176.70201 355.34961 169.2207 C 355.34961 161.7394 356.08773 154.40473 357.56445 147.2168 C 359.16416 140.02886 361.56426 133.64852 364.76367 128.07422 C 367.96308 122.35321 372.08565 117.80557 377.13086 114.43164 C 382.29914 111.05771 388.39022 109.36914 395.4043 109.36914 C 399.58813 109.36914 403.58767 110.02931 407.40234 111.34961 C 411.21702 112.66985 414.66192 114.65056 417.73828 117.29102 C 420.81462 119.93149 423.33776 123.23267 425.30664 127.19336 C 427.39858 131.00735 428.75193 135.48099 429.36719 140.61523 L 451.88672 140.61523 C 451.02534 131.81369 448.93378 124.03887 445.61133 117.29102 C 442.28887 110.54316 438.10381 104.96913 433.05859 100.56836 C 428.01335 96.020902 422.23084 92.647644 415.70898 90.447266 C 409.31017 88.100184 402.54143 86.925781 395.4043 86.925781 z M 695.50781 86.925781 C 685.66348 86.925781 676.80319 89.126573 668.92773 93.527344 C 661.17532 97.928117 654.59211 103.8683 649.17773 111.34961 C 643.76336 118.83092 639.58025 127.56006 636.62695 137.53516 C 633.79672 147.51023 632.38086 158.07208 632.38086 169.2207 C 632.38086 180.51602 633.79672 191.15188 636.62695 201.12695 C 639.58025 211.10205 643.76336 219.82924 649.17773 227.31055 C 654.59211 234.79185 661.17532 240.73399 668.92773 245.13477 C 676.80319 249.38885 685.66348 251.51562 695.50781 251.51562 C 703.50633 251.51562 710.82774 249.97507 717.47266 246.89453 C 724.11759 243.81398 729.90206 239.48641 734.82422 233.91211 C 739.74637 228.1911 743.62091 221.44265 746.45117 213.66797 C 749.40439 205.89327 751.12882 197.31216 751.62109 187.92383 L 729.10156 187.92383 C 728.60937 193.64484 727.56261 198.99879 725.96289 203.98633 C 724.36319 208.97389 722.1486 213.37547 719.31836 217.18945 C 716.4881 220.85677 713.10375 223.78986 709.16602 225.99023 C 705.2283 228.04392 700.67609 229.07031 695.50781 229.07031 C 688.49371 229.07031 682.40263 227.38367 677.23438 224.00977 C 672.18916 220.63584 668.06661 216.16221 664.86719 210.58789 C 661.66779 204.8669 659.26767 198.41254 657.66797 191.22461 C 656.19123 184.03668 655.45312 176.70201 655.45312 169.2207 C 655.45312 161.7394 656.19123 154.40473 657.66797 147.2168 C 659.26767 140.02886 661.66779 133.64852 664.86719 128.07422 C 668.06661 122.35321 672.18916 117.80557 677.23438 114.43164 C 682.40263 111.05771 688.49371 109.37109 695.50781 109.37109 C 700.30693 109.37109 704.49004 110.17739 708.05859 111.79102 C 711.75023 113.25794 714.95103 115.38473 717.6582 118.17188 C 720.3654 120.95904 722.57998 124.26021 724.30273 128.07422 C 726.02549 131.88823 727.37884 136.06777 728.36328 140.61523 L 751.43555 140.61523 C 750.69723 132.10708 748.78925 124.55234 745.71289 117.95117 C 742.63653 111.35002 738.57647 105.77599 733.53125 101.22852 C 728.6091 96.53437 722.88711 93.0131 716.36523 90.666016 C 709.84336 88.172248 702.89104 86.925781 695.50781 86.925781 z M 466.05664 90.666016 L 466.05664 114.43164 L 507.77148 114.43164 L 507.77148 247.77539 L 530.84375 247.77539 L 530.84375 114.43164 L 572.74414 114.43164 L 572.74414 90.666016 L 466.05664 90.666016 z M 588.20312 90.666016 L 588.20312 247.77539 L 611.27539 247.77539 L 611.27539 90.666016 L 588.20312 90.666016 z M 254.24414 109.37109 C 261.25822 109.37109 267.2868 111.05771 272.33203 114.43164 C 277.50029 117.80557 281.6834 122.35321 284.88281 128.07422 C 288.08214 133.64852 290.42172 140.02886 291.89844 147.2168 C 293.49814 154.40473 294.29688 161.7394 294.29688 169.2207 C 294.29687 176.70201 293.49814 184.03668 291.89844 191.22461 C 290.4218 198.41254 288.08222 204.8669 284.88281 210.58789 C 281.6834 216.16221 277.50029 220.63584 272.33203 224.00977 C 267.2868 227.38367 261.25822 229.07031 254.24414 229.07031 C 247.23006 229.07031 241.13701 227.38367 235.96875 224.00977 C 230.92352 220.63584 226.80293 216.16221 223.60352 210.58789 C 220.40412 204.8669 218.004 198.41254 216.4043 191.22461 C 214.92758 184.03668 214.18945 176.70201 214.18945 169.2207 C 214.18945 161.7394 214.92758 154.40473 216.4043 147.2168 C 218.004 140.02886 220.40412 133.64852 223.60352 128.07422 C 226.80293 122.35321 230.92352 117.80557 235.96875 114.43164 C 241.13701 111.05771 247.23006 109.37109 254.24414 109.37109 z "
       transform="scale(0.26458333)" />
  </g>
</svg>
